<svg width="30" height="33" viewBox="0 0 30 33" fill="none" xmlns="http://www.w3.org/2000/svg">
<path id="Union" fill-rule="evenodd" clip-rule="evenodd" d="M15.3793 32.0248C13.8284 32.2608 12.5135 32.3114 11.4347 32.1765L0.207641 15.4877C0.612218 14.8808 1.26966 14.2908 2.17996 13.7177C3.05654 13.1445 3.93313 12.7568 4.80971 12.5545L12.2344 22.7183L12.2344 1.5983L13.944 0.250001C14.7486 0.328163 15.4694 0.445406 16.1063 0.601731C16.7432 0.758056 17.2964 0.914381 17.7657 1.07071L17.7657 22.7982L25.2914 10.8856C26.168 11.1216 27.0278 11.5094 27.8706 12.0488C28.7135 12.5882 29.3541 13.1445 29.7924 13.7177L19.3745 30.8616C18.2282 31.4348 16.8965 31.8225 15.3793 32.0248Z" fill="#302CE8"/>
</svg>
