<svg width="32" height="31" viewBox="0 0 32 31" fill="none" xmlns="http://www.w3.org/2000/svg">
<path id="Union" fill-rule="evenodd" clip-rule="evenodd" d="M31.7748 15.8793C32.0108 14.3284 32.0614 13.0135 31.9265 11.9347L15.2377 0.707642C14.6308 1.11222 14.0408 1.76966 13.4677 2.67996C12.8945 3.55654 12.5068 4.43313 12.3045 5.30971L22.4683 12.7343L1.3483 12.7343L0 14.444C0.0781625 15.2486 0.195406 15.9693 0.351731 16.6063C0.508056 17.2432 0.664381 17.7963 0.820706 18.2657L22.5483 18.2657L10.6356 25.7914C10.8716 26.668 11.2593 27.5278 11.7988 28.3706C12.3382 29.2135 12.8945 29.8541 13.4677 30.2924L30.6116 19.8745C31.1848 18.7282 31.5725 17.3965 31.7748 15.8793Z" fill="#302CE8"/>
</svg>
