<svg width="32" height="31" viewBox="0 0 32 31" fill="none" xmlns="http://www.w3.org/2000/svg">
<path id="Union" fill-rule="evenodd" clip-rule="evenodd" d="M0.225197 15.1207C-0.0108044 16.6716 -0.0613757 17.9865 0.0734815 19.0653L16.7623 30.2924C17.3692 29.8878 17.9592 29.2303 18.5323 28.32C19.1055 27.4435 19.4932 26.5669 19.6955 25.6903L9.53171 18.2657L30.6517 18.2657L32 16.556C31.9218 15.7514 31.8046 15.0307 31.6483 14.3937C31.4919 13.7568 31.3356 13.2037 31.1793 12.7343L9.45168 12.7343L21.3644 5.20855C21.1284 4.33197 20.7406 3.47224 20.2012 2.62937C19.6618 1.7865 19.1055 1.14592 18.5323 0.707628L1.38836 11.1255C0.815207 12.2718 0.427487 13.6035 0.225197 15.1207Z" fill="#302CE8"/>
</svg>
