<svg width="30" height="33" viewBox="0 0 30 33" fill="none" xmlns="http://www.w3.org/2000/svg">
<path id="Union" fill-rule="evenodd" clip-rule="evenodd" d="M15.3793 0.975198C13.8284 0.739196 12.5135 0.688625 11.4347 0.823482L0.207641 17.5123C0.612218 18.1192 1.26966 18.7092 2.17996 19.2823C3.05654 19.8555 3.93313 20.2432 4.80971 20.4455L12.2344 10.2817L12.2344 31.4017L13.944 32.75C14.7486 32.6718 15.4694 32.5546 16.1063 32.3983C16.7432 32.2419 17.2964 32.0856 17.7657 31.9293L17.7657 10.2018L25.2914 22.1144C26.168 21.8784 27.0278 21.4906 27.8706 20.9512C28.7135 20.4118 29.3541 19.8555 29.7924 19.2823L19.3745 2.13836C18.2282 1.56521 16.8965 1.17749 15.3793 0.975198Z" fill="#302CE8"/>
</svg>
